<svg width="92" height="90" xmlns="http://www.w3.org/2000/svg">

 <metadata id="metadata7">image/svg+xml</metadata>
 <g>
  <title>background</title>
  <rect fill="none" id="canvas_background" height="92" width="94" y="-1" x="-1"/>
 </g>
 <g>
  <title>Layer 1</title>
  <g id="layer1">
   <path fill="rgba(0,0,0,.3)" fill-rule="evenodd" stroke="#000000" stroke-width="0px" id="path4945" d="m37,39c-12,-6 -18,-38 10,-38c28,0 22,32 10,38c8,-6 34,-14 34,14c0,28 -36,26 -38,4l-4,0c0,0 2,22 8,32l-20,0c6,-10 8,-32 8,-32l-4,0c-2,22 -40,24 -40,-4c0,-24 28,-20 36,-14z"/>
  </g>
 </g>
</svg>
